<svg width="118" height="24" viewBox="0 0 118 24" fill="none" xmlns="http://www.w3.org/2000/svg">
<path d="M8.57478 4.97914L5.49042 4.98169C5.39109 4.98169 5.27393 4.96386 5.20516 4.89255L4.15327 3.84066C4.0845 3.77189 4.06413 3.65473 4.06413 3.55795L4.05903 2.26664C4.05648 2.15712 3.97498 2.06543 3.86546 2.06543L2.16919 2.07053C2.05967 2.07053 1.97308 2.15712 1.97308 2.26664L1.96289 3.968C1.96289 4.07752 2.04949 4.16666 2.15901 4.16666L3.46305 4.15902C3.56238 4.15902 3.67444 4.18195 3.74576 4.25072L4.7951 5.30006C4.86642 5.37138 4.88679 5.48344 4.88934 5.58277L4.88679 8.66968C4.88679 8.87853 5.05234 9.05172 5.26119 9.05172H8.56204C8.76835 9.05172 8.93644 8.88617 8.93899 8.67732L8.95682 5.35864C8.95173 5.14979 8.78363 4.98169 8.57478 4.97914Z" fill="white"/>
<path d="M7.11106 1.59447L5.38423 1.62758C5.33074 1.62758 5.23396 1.64796 5.19576 1.60975L4.6176 1.03159C4.57939 0.993385 4.59977 0.89915 4.59977 0.843117L4.6125 0.117235C4.6125 0.0586547 4.5743 -0.00247 4.51317 7.69494e-05H3.58608C3.5275 7.69494e-05 3.48166 0.0459191 3.48166 0.104499L3.47656 1.03669C3.47656 1.09782 3.52496 1.14621 3.58608 1.14621L4.43421 1.15894C4.50298 1.15894 4.57175 1.1895 4.62015 1.23789L5.09388 1.71163C5.13208 1.74983 5.11425 1.84152 5.1168 1.89755L5.10152 3.60656C5.10152 3.72117 5.18557 3.82305 5.30018 3.82305L7.10851 3.8256C7.22058 3.8256 7.31227 3.73391 7.31227 3.62184L7.31991 1.80077C7.31736 1.68871 7.22568 1.59702 7.11106 1.59447Z" fill="white"/>
<path d="M3.6345 5.07103L1.90766 5.10415C1.85418 5.10415 1.7574 5.12452 1.71919 5.08631L1.14103 4.50815C1.10283 4.46995 1.1232 4.37571 1.1232 4.31968L1.13594 3.5938C1.13594 3.53522 1.09773 3.47409 1.03661 3.47664H0.109517C0.0509372 3.47664 0.00509111 3.52249 0.00509111 3.58107L0 4.51325C0 4.57438 0.0483902 4.62022 0.109517 4.62277L0.865962 4.62022C0.919448 4.62022 1.03661 4.60749 1.07481 4.64569L1.61731 5.18819C1.65552 5.2264 1.63769 5.31809 1.64023 5.37412L1.62495 7.08312C1.62495 7.19774 1.709 7.29962 1.82361 7.29962L3.63195 7.30216C3.74656 7.30216 3.83571 7.21302 3.83571 7.09841L3.84335 5.27734C3.8408 5.16527 3.74911 5.07358 3.6345 5.07103Z" fill="white"/>
<path d="M1.46684 0.965571C1.46684 0.871334 1.39043 0.794922 1.29619 0.794922H0.364005C0.269767 0.794922 0.193359 0.871334 0.193359 0.965571V1.89775C0.193359 1.99199 0.269767 2.0684 0.364005 2.0684H1.29619C1.39043 2.0684 1.46684 1.99199 1.46684 1.89775V0.965571Z" fill="white"/>
<path d="M5.00195 12.246V23.5774H11.4254V17.9893C11.4254 16.6216 13.2057 16.0893 13.9545 17.2354C13.957 17.2354 9.93285 10.7916 5.00195 12.246Z" fill="#BB2E20"/>
<path d="M17.5694 11.6521L25.0218 0.453125H17.5872L13.9705 6.17358C13.2319 7.34008 11.4287 6.81796 11.4287 5.43751V0.453125H5.25487V0.470952C5.24977 0.672161 5.33382 0.86573 5.48155 1.00072L7.11924 0.959966C7.58788 0.962513 7.96737 1.34201 7.96482 1.80811L7.95718 3.62662C7.95464 3.92717 7.79673 4.18696 7.55986 4.33723L8.58374 4.33468C9.14916 4.33722 9.60506 4.79823 9.60252 5.35856L9.58469 8.67723C9.58214 9.23502 9.12623 9.72658 8.5659 9.72658L5.26506 9.76223C5.18355 9.76223 5.17082 9.7495 5.00781 9.73167V12.243C9.93871 10.7861 13.9604 17.2299 13.9604 17.2299L18.1119 23.5744H25.7196L17.5694 11.6521Z" fill="#007AFF"/>
<path opacity="0.22" d="M5.00195 12.246C5.00195 12.246 8.91916 12.0244 11.5705 17.3628C12.0086 16.4892 13.3356 16.2854 13.9545 17.2354C13.957 17.2354 9.93285 10.7916 5.00195 12.246Z" fill="black"/>
<path d="M42.9418 13.4733V23.4574H37.2315V14.1381C37.2315 12.2253 36.5591 11.2524 35.0691 11.2524C33.3423 11.2524 32.265 12.4775 32.265 14.6067V23.4599H26.5547V0.896484H32.265V7.97447C33.4849 6.99134 35.0386 6.39281 36.6916 6.39281C40.4967 6.38772 42.9418 9.17663 42.9418 13.4733Z" fill="#007AFF"/>
<path d="M63.3869 6.86112V23.4392H58.973L58.484 22.2676C57.1265 23.3679 55.4073 23.9996 53.4818 23.9996C48.4134 23.9996 44.7891 20.3014 44.7891 15.1489C44.7891 10.0142 48.4134 6.35938 53.4818 6.35938C55.4328 6.35938 57.1774 7.01139 58.5477 8.13969L59.1309 6.85858H63.3869V6.86112ZM57.9568 15.1642C57.9568 13.012 56.3853 11.3972 54.2459 11.3972C52.0937 11.3972 50.535 13.0146 50.535 15.1642C50.535 17.3291 52.1065 18.9439 54.2459 18.9439C56.3853 18.9439 57.9568 17.3266 57.9568 15.1642Z" fill="#007AFF"/>
<path d="M82.7562 13.3489V23.4578H77.046V14.1385C77.046 12.2079 76.3226 11.2528 74.8836 11.2528C73.1033 11.2528 72.0794 12.4957 72.0794 14.6071V23.4603H66.3691V6.88219H70.3755L71.16 8.59119C72.3952 7.21584 74.2341 6.39063 76.3787 6.39063C80.2296 6.38808 82.7562 9.12606 82.7562 13.3489Z" fill="#007AFF"/>
<path d="M91.8848 1.96582H97.8828V23.457H91.8848V1.96582Z" fill="white"/>
<path d="M117.546 7.29659H111.709V23.457H105.761V7.29659H99.9238V1.96582H117.546V7.29659Z" fill="white"/>
</svg>
