<svg width="118" height="24" viewBox="0 0 118 24" fill="none" xmlns="http://www.w3.org/2000/svg">
<g id="Logo">
<g id="Group">
<g id="Group_2">
<path id="Vector" d="M8.57478 4.97939L5.49042 4.98194C5.39109 4.98194 5.27393 4.96411 5.20516 4.89279L4.15327 3.8409C4.0845 3.77213 4.06413 3.65498 4.06413 3.55819L4.05903 2.26689C4.05648 2.15737 3.97498 2.06567 3.86546 2.06567L2.16919 2.07077C2.05967 2.07077 1.97308 2.15737 1.97308 2.26689L1.96289 3.96825C1.96289 4.07777 2.04949 4.16691 2.15901 4.16691L3.46305 4.15927C3.56238 4.15927 3.67444 4.1822 3.74576 4.25096L4.7951 5.30031C4.86642 5.37162 4.88679 5.48368 4.88934 5.58301L4.88679 8.66993C4.88679 8.87878 5.05234 9.05197 5.26119 9.05197H8.56204C8.76835 9.05197 8.93644 8.88642 8.93899 8.67757L8.95682 5.35889C8.95173 5.15004 8.78363 4.98193 8.57478 4.97939Z" fill="#007AFF"/>
<path id="Vector_2" d="M7.11106 1.59447L5.38423 1.62758C5.33074 1.62758 5.23396 1.64796 5.19576 1.60975L4.6176 1.03159C4.57939 0.993385 4.59977 0.89915 4.59977 0.843117L4.6125 0.117235C4.6125 0.0586547 4.5743 -0.00247 4.51317 7.69494e-05H3.58608C3.5275 7.69494e-05 3.48166 0.0459191 3.48166 0.104499L3.47656 1.03669C3.47656 1.09782 3.52496 1.14621 3.58608 1.14621L4.43421 1.15894C4.50298 1.15894 4.57175 1.1895 4.62015 1.23789L5.09388 1.71163C5.13208 1.74983 5.11425 1.84152 5.1168 1.89755L5.10152 3.60656C5.10152 3.72117 5.18557 3.82305 5.30018 3.82305L7.10851 3.8256C7.22058 3.8256 7.31227 3.73391 7.31227 3.62184L7.31991 1.80077C7.31736 1.68871 7.22568 1.59702 7.11106 1.59447Z" fill="#007AFF"/>
<path id="Vector_3" d="M3.6345 5.07103L1.90766 5.10415C1.85418 5.10415 1.7574 5.12452 1.71919 5.08631L1.14103 4.50815C1.10283 4.46995 1.1232 4.37571 1.1232 4.31968L1.13594 3.5938C1.13594 3.53522 1.09773 3.47409 1.03661 3.47664H0.109517C0.0509372 3.47664 0.00509111 3.52249 0.00509111 3.58107L0 4.51325C0 4.57438 0.0483902 4.62022 0.109517 4.62277L0.865962 4.62022C0.919448 4.62022 1.03661 4.60749 1.07481 4.64569L1.61731 5.18819C1.65552 5.2264 1.63769 5.31809 1.64023 5.37412L1.62495 7.08312C1.62495 7.19774 1.709 7.29962 1.82361 7.29962L3.63195 7.30216C3.74656 7.30216 3.83571 7.21302 3.83571 7.09841L3.84335 5.27734C3.8408 5.16527 3.74911 5.07358 3.6345 5.07103Z" fill="#007AFF"/>
<path id="Vector_4" d="M1.46684 0.965327C1.46684 0.87109 1.39043 0.794678 1.29619 0.794678H0.364005C0.269767 0.794678 0.193359 0.87109 0.193359 0.965327V1.8975C0.193359 1.99174 0.269767 2.06815 0.364005 2.06815H1.29619C1.39043 2.06815 1.46684 1.99174 1.46684 1.8975V0.965327Z" fill="#007AFF"/>
</g>
<path id="Vector_5" d="M5.00195 12.2457V23.5771H11.4254V17.9891C11.4254 16.6214 13.2057 16.0891 13.9545 17.2352C13.957 17.2352 9.93285 10.7914 5.00195 12.2457Z" fill="#080829"/>
<path id="Vector_6" d="M17.5694 11.6523L25.0218 0.453369H17.5872L13.9705 6.17382C13.2319 7.34032 11.4287 6.8182 11.4287 5.43776V0.453369H5.25487V0.471196C5.24977 0.672405 5.33382 0.865974 5.48155 1.00096L7.11924 0.96021C7.58788 0.962757 7.96737 1.34226 7.96482 1.80835L7.95718 3.62687C7.95464 3.92741 7.79673 4.1872 7.55986 4.33747L8.58374 4.33492C9.14916 4.33747 9.60506 4.79847 9.60252 5.3588L9.58469 8.67748C9.58214 9.23526 9.12623 9.72682 8.5659 9.72682L5.26506 9.76248C5.18355 9.76248 5.17082 9.74974 5.00781 9.73191V12.2432C9.93871 10.7864 13.9604 17.2301 13.9604 17.2301L18.1119 23.5746H25.7196L17.5694 11.6523Z" fill="#007AFF"/>
<path id="Vector_7" opacity="0.22" d="M5.00195 12.2457C5.00195 12.2457 8.91916 12.0241 11.5705 17.3625C12.0086 16.4889 13.3356 16.2852 13.9545 17.2352C13.957 17.2352 9.93285 10.7914 5.00195 12.2457Z" fill="black"/>
</g>
<g id="Group_3">
<g id="Group_4">
<path id="Vector_8" d="M42.9418 13.4733V23.4574H37.2315V14.1381C37.2315 12.2253 36.5591 11.2524 35.0691 11.2524C33.3423 11.2524 32.265 12.4775 32.265 14.6067V23.4599H26.5547V0.896484H32.265V7.97447C33.4849 6.99134 35.0386 6.39281 36.6916 6.39281C40.4967 6.38772 42.9418 9.17663 42.9418 13.4733Z" fill="#007AFF"/>
<path id="Vector_9" d="M63.3869 6.86137V23.4395H58.973L58.484 22.2679C57.1265 23.3682 55.4073 23.9998 53.4818 23.9998C48.4134 23.9998 44.7891 20.3016 44.7891 15.1491C44.7891 10.0145 48.4134 6.35962 53.4818 6.35962C55.4328 6.35962 57.1774 7.01164 58.5477 8.13994L59.1309 6.85882H63.3869V6.86137ZM57.9568 15.1644C57.9568 13.0123 56.3853 11.3975 54.2459 11.3975C52.0937 11.3975 50.535 13.0148 50.535 15.1644C50.535 17.3293 52.1065 18.9441 54.2459 18.9441C56.3853 18.9441 57.9568 17.3268 57.9568 15.1644Z" fill="#007AFF"/>
<path id="Vector_10" d="M82.7562 13.3484V23.4573H77.046V14.138C77.046 12.2074 76.3226 11.2523 74.8836 11.2523C73.1033 11.2523 72.0794 12.4952 72.0794 14.6066V23.4598H66.3691V6.8817H70.3755L71.16 8.5907C72.3952 7.21535 74.2341 6.39014 76.3787 6.39014C80.2296 6.38759 82.7562 9.12557 82.7562 13.3484Z" fill="#007AFF"/>
</g>
<g id="Group_5">
<path id="Vector_11" d="M91.8848 1.96631H97.8828V23.4575H91.8848V1.96631Z" fill="#080829"/>
<path id="Vector_12" d="M117.546 7.29708H111.709V23.4575H105.761V7.29708H99.9238V1.96631H117.546V7.29708Z" fill="#080829"/>
</g>
</g>
</g>
</svg>
