<svg width="211" height="211" viewBox="0 0 211 211" fill="none" xmlns="http://www.w3.org/2000/svg">
<mask id="mask0_9_1720" style="mask-type:alpha" maskUnits="userSpaceOnUse" x="0" y="0" width="211" height="211">
<circle r="105" transform="matrix(1 -2.58144e-08 0.000652392 1 105.844 105.288)" fill="#040107"/>
</mask>
<g mask="url(#mask0_9_1720)">
<g filter="url(#filter0_b_9_1720)">
<circle r="105" transform="matrix(1 -2.58144e-08 0.000652392 1 105.844 105.288)" fill="#040107" fill-opacity="0.15"/>
</g>
<circle r="104.5" transform="matrix(1 -2.58144e-08 0.000652392 1 105.844 105.288)" stroke="white" stroke-opacity="0.5"/>
<circle r="56.5" transform="matrix(1 -2.58144e-08 0.000652392 1 105.986 105.861)" stroke="white" stroke-opacity="0.5"/>
<path d="M118.15 113.029L92.1808 113.03L105.152 90.5193L118.15 113.029Z" fill="white"/>
<path d="M172.844 161.146C172.52 161.542 172.154 161.824 171.746 161.991C171.339 162.158 170.919 162.2 170.486 162.116C170.054 162.043 169.646 161.849 169.262 161.534C168.884 161.224 168.622 160.864 168.476 160.454C168.325 160.05 168.296 159.626 168.389 159.181C168.483 158.747 168.695 158.329 169.024 157.927L170.069 156.649C170.094 156.619 170.091 156.592 170.061 156.567L167.764 154.686C167.734 154.662 167.717 154.627 167.712 154.584C167.709 154.551 167.72 154.52 167.744 154.49L168.606 153.437C168.63 153.407 168.661 153.387 168.699 153.378C168.738 153.379 168.772 153.393 168.802 153.417L174.9 158.412C174.93 158.437 174.947 158.465 174.95 158.498C174.954 158.542 174.944 158.578 174.92 158.608L172.844 161.146ZM170.152 158.626C169.926 158.902 169.823 159.188 169.841 159.484C169.866 159.785 170.008 160.041 170.266 160.252C170.53 160.469 170.812 160.559 171.111 160.524C171.411 160.489 171.674 160.333 171.899 160.057L172.834 158.914C172.859 158.884 172.856 158.857 172.826 158.832L171.169 157.475C171.139 157.45 171.111 157.453 171.087 157.483L170.152 158.626Z" fill="white"/>
<path d="M160.49 162.622C160.519 162.596 160.552 162.581 160.591 162.577C160.629 162.584 160.661 162.602 160.687 162.631L165.994 168.444C166.02 168.473 166.032 168.504 166.031 168.537C166.029 168.58 166.014 168.615 165.985 168.641L164.981 169.559C164.952 169.585 164.919 169.594 164.881 169.587C164.842 169.591 164.81 169.578 164.783 169.55L160.372 164.717C160.345 164.688 160.318 164.687 160.289 164.713L157.482 167.277C157.454 167.303 157.42 167.312 157.382 167.305C157.343 167.309 157.311 167.296 157.285 167.268L156.523 166.434C156.497 166.405 156.485 166.369 156.487 166.325C156.489 166.292 156.504 166.262 156.532 166.236L160.49 162.622Z" fill="white"/>
<path d="M148.309 172.284C148.374 172.24 148.437 172.245 148.5 172.296L149.424 173.05C149.454 173.067 149.479 173.07 149.499 173.057L151.875 171.466C151.895 171.453 151.902 171.429 151.898 171.395L151.543 170.259C151.519 170.182 151.539 170.121 151.604 170.078L152.831 169.257C152.869 169.231 152.905 169.221 152.937 169.228C152.974 169.241 153.001 169.274 153.018 169.328L155.311 177.265C155.335 177.342 155.315 177.402 155.25 177.446L153.733 178.461C153.669 178.504 153.605 178.5 153.543 178.448L147.076 173.305C147.061 173.296 147.047 173.282 147.034 173.263C146.995 173.205 147.011 173.152 147.082 173.105L148.309 172.284ZM152.321 172.779C152.301 172.736 152.276 172.725 152.243 172.747L150.543 173.885C150.504 173.911 150.504 173.939 150.543 173.969L153.337 176.26C153.361 176.282 153.377 176.285 153.385 176.27C153.398 176.261 153.401 176.245 153.395 176.221L152.321 172.779Z" fill="white"/>
<path d="M139.57 177.183C139.605 177.167 139.642 177.163 139.68 177.172C139.714 177.19 139.739 177.217 139.755 177.253L140.969 179.937C140.981 179.965 140.995 179.985 141.008 179.996L145.177 183.402C145.204 183.424 145.221 183.442 145.227 183.456C145.253 183.513 145.227 183.558 145.149 183.593L143.814 184.196C143.743 184.228 143.68 184.219 143.622 184.168L141.022 181.944C140.981 181.911 140.96 181.921 140.958 181.973L140.91 185.393C140.91 185.469 140.875 185.523 140.804 185.555L139.448 186.167C139.398 186.19 139.36 186.19 139.333 186.168C139.303 186.156 139.287 186.121 139.285 186.062L139.503 180.675C139.504 180.658 139.498 180.635 139.485 180.607L138.271 177.923C138.255 177.887 138.255 177.849 138.27 177.808C138.282 177.777 138.305 177.754 138.341 177.738L139.57 177.183Z" fill="white"/>
<path d="M119.596 183.452C120.192 183.353 120.741 183.387 121.241 183.556C121.733 183.725 122.142 184.007 122.468 184.401C122.795 184.803 123.006 185.291 123.103 185.865L123.515 188.322C123.61 188.888 123.568 189.41 123.389 189.888C123.21 190.367 122.915 190.762 122.504 191.074C122.086 191.396 121.579 191.606 120.982 191.706C120.378 191.806 119.83 191.772 119.337 191.602C118.838 191.441 118.426 191.164 118.101 190.77C117.775 190.376 117.565 189.895 117.47 189.329L117.057 186.872C116.961 186.299 117.001 185.769 117.179 185.283C117.357 184.797 117.655 184.393 118.073 184.072C118.484 183.759 118.992 183.553 119.596 183.452ZM119.829 184.841C119.409 184.911 119.091 185.102 118.876 185.413C118.661 185.724 118.59 186.102 118.665 186.546L119.089 189.071C119.164 189.515 119.353 189.849 119.658 190.073C119.957 190.307 120.32 190.388 120.749 190.317C121.169 190.247 121.487 190.052 121.7 189.733C121.908 189.423 121.974 189.046 121.9 188.603L121.476 186.077C121.401 185.633 121.215 185.299 120.918 185.073C120.613 184.848 120.25 184.771 119.829 184.841Z" fill="white"/>
<path d="M106.626 184.712C107.223 184.713 107.751 184.829 108.209 185.062C108.659 185.295 109.012 185.621 109.268 186.04C109.517 186.467 109.641 186.956 109.642 187.507L109.647 192.813C109.647 192.852 109.635 192.883 109.612 192.907C109.581 192.938 109.546 192.953 109.507 192.953L108.146 192.952C108.107 192.952 108.076 192.937 108.053 192.906C108.022 192.882 108.006 192.851 108.006 192.813L108.001 187.494C108.001 187.083 107.877 186.75 107.628 186.493C107.372 186.245 107.039 186.121 106.627 186.12C106.216 186.12 105.887 186.244 105.639 186.492C105.383 186.748 105.256 187.082 105.256 187.493L105.261 192.811C105.261 192.85 105.25 192.881 105.226 192.904C105.195 192.935 105.16 192.951 105.122 192.951L103.761 192.95C103.722 192.95 103.691 192.934 103.667 192.903C103.636 192.88 103.621 192.849 103.621 192.81L103.616 187.504C103.615 186.953 103.743 186.464 103.998 186.038C104.246 185.619 104.599 185.293 105.056 185.061C105.506 184.828 106.029 184.712 106.626 184.712Z" fill="white"/>
<path d="M92.1655 183.625C92.2421 183.638 92.2901 183.681 92.3097 183.755L93.2338 187.17C93.2442 187.203 93.2647 187.222 93.2953 187.227L94.3634 187.4C94.4017 187.406 94.4239 187.39 94.4301 187.352L94.9343 184.216C94.9404 184.178 94.9613 184.146 94.9968 184.12C95.0235 184.101 95.056 184.094 95.0943 184.101L96.4381 184.319C96.4763 184.325 96.509 184.342 96.5359 184.37C96.5539 184.404 96.5599 184.441 96.5537 184.479L95.3053 192.244C95.2991 192.282 95.2827 192.311 95.256 192.33C95.2205 192.356 95.1836 192.366 95.1453 192.359L91.8604 191.826C91.3704 191.747 90.9576 191.578 90.6221 191.319C90.2789 191.059 90.0373 190.729 89.8974 190.329C89.7497 189.928 89.7147 189.486 89.7922 189.004C89.876 188.483 90.0782 188.056 90.3988 187.723C90.7183 187.398 91.1238 187.196 91.6155 187.119C91.6563 187.11 91.6721 187.085 91.6629 187.044L90.6235 183.54C90.6132 183.507 90.6092 183.483 90.6117 183.467C90.6215 183.406 90.6685 183.382 90.7528 183.396L92.1655 183.625ZM93.8297 190.72C93.868 190.726 93.8902 190.71 93.8964 190.672L94.2122 188.707C94.2183 188.669 94.2023 188.647 94.164 188.641L92.6594 188.396C92.3378 188.344 92.0621 188.398 91.8322 188.557C91.5947 188.715 91.4513 188.947 91.4021 189.253C91.3528 189.559 91.4162 189.825 91.5921 190.05C91.7592 190.281 92.0035 190.423 92.3251 190.476L93.8297 190.72Z" fill="white"/>
<path d="M77.5019 179.551C77.538 179.565 77.5662 179.589 77.5865 179.622C77.5967 179.659 77.5947 179.696 77.5804 179.732L74.6875 187.043C74.6733 187.079 74.651 187.104 74.6209 187.117C74.5806 187.134 74.5424 187.135 74.5064 187.121L73.2408 186.618C73.2047 186.604 73.1816 186.578 73.1713 186.541C73.1511 186.508 73.148 186.473 73.1623 186.437L76.0552 179.126C76.0694 179.09 76.0967 179.063 76.1369 179.046C76.1671 179.033 76.2003 179.034 76.2363 179.048L77.5019 179.551Z" fill="white"/>
<path d="M62.9722 181.499C62.9534 181.532 62.9282 181.554 62.8966 181.563C62.8544 181.575 62.8164 181.572 62.7824 181.553L61.592 180.891C61.5581 180.872 61.5384 180.844 61.5331 180.805C61.5173 180.77 61.5187 180.735 61.5375 180.701L65.3493 173.826C65.3681 173.792 65.3986 173.769 65.4408 173.757C65.4724 173.748 65.5052 173.753 65.5391 173.772L66.6889 174.411C66.7567 174.449 66.7892 174.502 66.7862 174.571L67.0082 180.389C67.0104 180.417 67.0202 180.431 67.0376 180.432C67.0511 180.44 67.0654 180.43 67.0805 180.403L69.4397 176.1C69.4585 176.066 69.489 176.043 69.5311 176.031C69.5628 176.022 69.5955 176.027 69.6295 176.045L70.8199 176.707C70.8538 176.726 70.8787 176.753 70.8946 176.789C70.8999 176.827 70.8932 176.863 70.8744 176.897L67.0626 183.772C67.0438 183.806 67.0185 183.828 66.9869 183.837C66.9447 183.849 66.9067 183.845 66.8728 183.826L65.723 183.187C65.6552 183.15 65.6227 183.096 65.6257 183.027L65.4026 177.235C65.4004 177.207 65.3924 177.189 65.3789 177.182C65.3615 177.181 65.3454 177.194 65.3303 177.221L62.9722 181.499Z" fill="white"/>
<path d="M50.3383 172.966C50.3078 172.942 50.293 172.911 50.2939 172.872C50.2839 172.834 50.2909 172.8 50.3149 172.77L51.0196 171.875C51.0436 171.844 51.0774 171.826 51.1209 171.821C51.1536 171.817 51.1852 171.827 51.2156 171.851L52.8524 173.142C52.8829 173.166 52.9101 173.162 52.9341 173.132L56.9684 168.006C56.9923 167.976 57.0261 167.958 57.0697 167.953C57.1023 167.949 57.1339 167.959 57.1644 167.983L58.2342 168.826C58.2647 168.85 58.285 168.881 58.295 168.919C58.2941 168.957 58.2816 168.992 58.2577 169.023L54.2234 174.148C54.1994 174.179 54.2027 174.206 54.2332 174.23L55.8242 175.484C55.8547 175.508 55.8749 175.539 55.8849 175.576C55.884 175.615 55.8716 175.65 55.8476 175.68L55.1429 176.575C55.1189 176.606 55.0906 176.623 55.0579 176.627C55.0144 176.632 54.9774 176.623 54.9469 176.599L50.3383 172.966Z" fill="white"/>
<path d="M47.4225 158.902C47.4753 158.959 47.4867 159.023 47.4567 159.093L46.0875 162.351C46.0753 162.384 46.0798 162.411 46.1009 162.434L46.8377 163.228C46.8641 163.256 46.8915 163.257 46.9199 163.231L49.2454 161.071C49.2738 161.044 49.3099 161.032 49.3538 161.034C49.3866 161.035 49.4163 161.05 49.4427 161.078L50.3696 162.076C50.396 162.105 50.4113 162.138 50.4154 162.177C50.4085 162.215 50.3909 162.247 50.3625 162.274L44.6041 167.623C44.5757 167.649 44.5451 167.662 44.5122 167.661C44.4684 167.659 44.4333 167.644 44.4068 167.615L42.141 165.175C41.803 164.811 41.581 164.424 41.4752 164.014C41.364 163.598 41.3761 163.189 41.5113 162.788C41.6413 162.381 41.8852 162.012 42.243 161.679C42.6291 161.321 43.0511 161.109 43.509 161.044C43.9611 160.984 44.4051 161.075 44.8408 161.316C44.8786 161.334 44.9064 161.324 44.9242 161.286L46.2574 157.887C46.2696 157.854 46.2814 157.833 46.2927 157.822C46.3381 157.78 46.3899 157.79 46.448 157.853L47.4225 158.902ZM44.3759 165.515C44.4023 165.543 44.4298 165.544 44.4581 165.518L45.9148 164.165C45.9432 164.138 45.9442 164.111 45.9177 164.082L44.8799 162.965C44.6581 162.726 44.4075 162.598 44.1282 162.582C43.8436 162.56 43.5878 162.655 43.3606 162.866C43.1335 163.077 43.0202 163.325 43.0208 163.611C43.0105 163.896 43.1163 164.158 43.3381 164.397L44.3759 165.515Z" fill="white"/>
<path d="M40.9548 150.495C41.2908 150.999 41.4848 151.513 41.5368 152.038C41.5846 152.557 41.4957 153.045 41.2702 153.503C41.0383 153.966 40.6805 154.358 40.1968 154.681L38.1265 156.061C37.6493 156.379 37.1558 156.554 36.646 156.586C36.1363 156.618 35.6544 156.51 35.2003 156.262C34.7355 156.012 34.3351 155.635 33.9992 155.131C33.6589 154.621 33.4649 154.107 33.4172 153.588C33.3587 153.067 33.4422 152.578 33.6677 152.12C33.8932 151.662 34.2446 151.274 34.7218 150.955L36.7921 149.575C37.2758 149.253 37.7757 149.074 38.2919 149.037C38.8081 149.001 39.2986 149.108 39.7634 149.358C40.2174 149.606 40.6146 149.985 40.9548 150.495ZM39.7843 151.275C39.5474 150.92 39.2429 150.708 38.8707 150.639C38.4985 150.57 38.1254 150.66 37.7514 150.909L35.6231 152.328C35.249 152.577 35.0223 152.887 34.943 153.257C34.853 153.625 34.9286 153.989 35.1698 154.351C35.4066 154.706 35.7144 154.916 36.093 154.981C36.4609 155.044 36.8318 154.95 37.2059 154.701L39.3342 153.282C39.7083 153.033 39.9371 152.727 40.0207 152.363C40.1 151.993 40.0212 151.63 39.7843 151.275Z" fill="white"/>
<path d="M31.8763 133.186C31.9014 133.26 31.8811 133.32 31.8153 133.367L25.1529 138.175L25.1126 138.201C25.0393 138.226 24.9888 138.198 24.9611 138.118L24.4859 136.73C24.4583 136.649 24.4774 136.585 24.5432 136.538L29.412 133.24C29.4315 133.225 29.4387 133.21 29.4337 133.196C29.4287 133.181 29.4139 133.174 29.3894 133.174L23.525 133.564C23.4441 133.567 23.3898 133.528 23.3622 133.448L22.8983 132.093C22.8833 132.049 22.8866 132.011 22.9084 131.979C22.9302 131.947 22.9656 131.93 23.0147 131.93L31.2421 131.693C31.323 131.69 31.376 131.725 31.4011 131.798L31.8763 133.186Z" fill="white"/>
<path d="M28.8239 122.572C28.8316 122.61 28.8272 122.646 28.8106 122.681C28.7848 122.71 28.753 122.729 28.715 122.736L21.0091 124.294C20.9711 124.302 20.9384 124.296 20.9109 124.278C20.8743 124.254 20.8522 124.223 20.8444 124.185L20.573 122.85C20.5652 122.812 20.5743 122.779 20.6 122.75C20.6166 122.715 20.6439 122.693 20.6819 122.686L28.3878 121.128C28.4258 121.12 28.4631 121.128 28.4997 121.153C28.5271 121.171 28.5447 121.199 28.5524 121.237L28.8239 122.572Z" fill="white"/>
<path d="M27.5498 115.422C27.5526 115.461 27.5435 115.496 27.5225 115.529C27.4932 115.554 27.4592 115.568 27.4205 115.571L19.5767 116.121C19.538 116.124 19.5063 116.115 19.4814 116.093C19.4482 116.064 19.4303 116.03 19.4275 115.992L19.2199 113.09C19.1783 112.509 19.2465 111.995 19.4243 111.547C19.5939 111.092 19.8557 110.731 20.2099 110.465C20.564 110.199 20.9847 110.049 21.4721 110.015L24.6746 109.79C25.1619 109.756 25.5998 109.846 25.9883 110.06C26.3768 110.274 26.6912 110.594 26.9316 111.02C27.1638 111.44 27.3006 111.939 27.3421 112.52L27.5498 115.422ZM25.9806 114.027C26.0193 114.024 26.0373 114.004 26.0345 113.965L25.934 112.56C25.9085 112.204 25.7681 111.926 25.5128 111.727C25.257 111.519 24.9276 111.425 24.5248 111.446L21.8561 111.633C21.4538 111.661 21.1408 111.796 20.9171 112.037C20.6928 112.271 20.5939 112.573 20.6205 112.945L20.7202 114.338C20.723 114.376 20.7437 114.394 20.7824 114.392L25.9806 114.027Z" fill="white"/>
<path d="M20.7271 96.3236C20.7657 96.3269 20.7992 96.3453 20.8275 96.3788C20.8488 96.404 20.8578 96.4359 20.8545 96.4746L20.5354 100.278C20.5322 100.316 20.5499 100.337 20.5885 100.341L22.3853 100.494C22.4239 100.497 22.4449 100.48 22.4481 100.441L22.6573 97.9482C22.6606 97.9096 22.6786 97.88 22.7115 97.8594C22.7372 97.8305 22.7695 97.8177 22.8081 97.821L23.9325 97.917C23.9712 97.9203 24.0047 97.9388 24.033 97.9723C24.0542 97.9975 24.0632 98.0294 24.06 98.0681L23.8508 100.561C23.8475 100.6 23.8652 100.621 23.9039 100.624L25.7818 100.784C25.8205 100.788 25.8414 100.77 25.8446 100.731L26.1638 96.9282C26.167 96.8895 26.1851 96.8599 26.2179 96.8394C26.2437 96.8105 26.2759 96.7976 26.3146 96.8009L27.439 96.897C27.4776 96.9003 27.5111 96.9187 27.5394 96.9523C27.5607 96.9775 27.5697 97.0094 27.5664 97.048L27.1169 102.405C27.1137 102.444 27.0992 102.477 27.0734 102.506C27.0405 102.527 27.0048 102.535 26.9661 102.532L19.1298 101.863C19.0912 101.859 19.0612 101.845 19.04 101.82C19.0117 101.786 18.9991 101.75 19.0024 101.712L19.4519 96.3547C19.4551 96.3161 19.4732 96.2865 19.506 96.2659C19.5318 96.237 19.564 96.2242 19.6027 96.2275L20.7271 96.3236Z" fill="white"/>
<path d="M29.2117 88.467C29.0685 89.0547 28.8213 89.5451 28.4701 89.9381C28.1207 90.3235 27.7009 90.5879 27.2109 90.7313C26.7133 90.8728 26.1819 90.8743 25.6168 90.7358L23.198 90.1428C22.6405 90.0061 22.1772 89.7608 21.8083 89.4068C21.4393 89.0529 21.1922 88.625 21.0669 88.1232C20.936 87.612 20.942 87.0625 21.0852 86.4748C21.2302 85.8795 21.4774 85.3891 21.8268 85.0037C22.1705 84.6089 22.5874 84.3398 23.0775 84.1964C23.5675 84.053 24.0914 84.0497 24.649 84.1864L27.0677 84.7794C27.6328 84.9179 28.1036 85.1651 28.4801 85.5209C28.8565 85.8767 29.1102 86.3102 29.2412 86.8214C29.3665 87.3232 29.3567 87.8717 29.2117 88.467ZM27.8441 88.1317C27.945 87.7173 27.8948 87.3497 27.6935 87.0288C27.4922 86.708 27.173 86.494 26.736 86.3869L24.2495 85.7773C23.8124 85.6701 23.4309 85.7123 23.1047 85.9039C22.7729 86.086 22.5556 86.3881 22.4528 86.81C22.3519 87.2245 22.4058 87.593 22.6147 87.9157C22.8178 88.229 23.1379 88.4392 23.5749 88.5464L26.0615 89.156C26.4985 89.2631 26.8792 89.2247 27.2035 89.0407C27.5296 88.8491 27.7431 88.5462 27.8441 88.1317Z" fill="white"/>
<path d="M43.6048 58.7133L37.0867 53.308L39.2147 50.7386C39.6237 50.2447 40.0667 49.9022 40.5435 49.7111C41.0181 49.5183 41.4975 49.4688 41.9816 49.5628C42.4654 49.6528 42.9237 49.8773 43.3565 50.2362C43.7894 50.5952 44.094 51.0052 44.2705 51.4662C44.447 51.9273 44.4809 52.4113 44.3723 52.9184C44.2655 53.4234 44.0048 53.9261 43.5905 54.4264L42.2342 56.064L41.1298 55.1482L42.3018 53.7331C42.5212 53.4682 42.6564 53.212 42.7074 52.9646C42.758 52.7133 42.7368 52.4776 42.6436 52.2573C42.5501 52.0331 42.3962 51.8322 42.1819 51.6545C41.9655 51.475 41.7407 51.3619 41.5074 51.3151C41.2738 51.2644 41.0405 51.289 40.8074 51.389C40.5722 51.4871 40.344 51.6698 40.1227 51.9369L39.3537 52.8654L44.7451 57.3364L43.6048 58.7133Z" fill="white"/>
<path d="M51.7274 49.611L46.0562 43.3223L47.3835 42.1248L52.0662 47.3172L54.7577 44.889L55.7463 45.9852L51.7274 49.611Z" fill="white"/>
<path d="M60.9719 41.9808L59.3735 43.0367L57.1398 34.3632L59.0621 33.0934L66.1634 38.5514L64.565 39.6073L59.1955 35.3244L59.1404 35.3609L60.9719 41.9808ZM59.0367 39.2699L62.8124 36.7758L63.583 37.9418L59.8073 40.4358L59.0367 39.2699Z" fill="white"/>
<path d="M66.9444 28.4577L68.7745 27.6448L72.0194 30.1937L72.0949 30.1602L72.3745 26.0459L74.2047 25.233L73.6115 31.4862L74.8286 34.221L73.2059 34.9417L71.9889 32.2069L66.9444 28.4577Z" fill="white"/>
<path d="M96.9765 23.8721C97.1239 24.7834 97.0766 25.5864 96.8347 26.281C96.5956 26.9752 96.2069 27.5385 95.6688 27.9709C95.133 28.4001 94.4967 28.6738 93.7599 28.792C93.0177 28.911 92.3244 28.8492 91.6799 28.6065C91.0354 28.3638 90.4902 27.9503 90.0442 27.366C89.5983 26.7816 89.3019 26.0352 89.155 25.1266C89.0076 24.2153 89.0535 23.4126 89.2927 22.7184C89.5318 22.0242 89.9193 21.4624 90.4552 21.0332C90.9906 20.6013 91.6294 20.3258 92.3716 20.2068C93.1083 20.0886 93.799 20.1509 94.4435 20.3935C95.0902 20.6331 95.6366 21.045 96.0825 21.6293C96.5312 22.2132 96.8292 22.9608 96.9765 23.8721ZM95.1863 24.1593C95.0908 23.569 94.922 23.0853 94.6797 22.7083C94.4402 22.3309 94.1444 22.063 93.7925 21.9045C93.4405 21.7461 93.0511 21.7011 92.6243 21.7696C92.1975 21.838 91.842 22.0025 91.5577 22.263C91.2735 22.5235 91.0758 22.8705 90.9647 23.3042C90.8562 23.7374 90.8497 24.2492 90.9452 24.8395C91.0407 25.4298 91.2081 25.9136 91.4477 26.2911C91.6899 26.668 91.9871 26.9358 92.339 27.0942C92.691 27.2526 93.0804 27.2976 93.5072 27.2292C93.934 27.1607 94.2895 26.9962 94.5737 26.7358C94.858 26.4753 95.0543 26.1284 95.1627 25.6952C95.2739 25.2615 95.2818 24.7496 95.1863 24.1593Z" fill="white"/>
<path d="M108.15 19.2306L109.938 19.2424L109.91 24.7385C109.907 25.3556 109.757 25.8946 109.46 26.3555C109.165 26.8164 108.755 27.1746 108.227 27.4301C107.7 27.6829 107.087 27.8069 106.387 27.8023C105.685 27.7976 105.071 27.6655 104.547 27.4058C104.022 27.1434 103.615 26.7797 103.325 26.315C103.036 25.8502 102.892 25.3093 102.896 24.6922L102.924 19.1961L104.713 19.2079L104.685 24.5511C104.683 24.8734 104.752 25.1604 104.891 25.412C105.033 25.6637 105.233 25.862 105.492 26.007C105.75 26.1519 106.051 26.2256 106.395 26.2278C106.742 26.2301 107.044 26.1605 107.301 26.0189C107.56 25.8774 107.761 25.6817 107.903 25.4319C108.047 25.1822 108.12 24.8962 108.122 24.5738L108.15 19.2306Z" fill="white"/>
<path d="M115.883 28.2081L117.276 19.8625L120.569 20.4174C121.199 20.5237 121.718 20.7271 122.126 21.0276C122.537 21.326 122.825 21.6999 122.99 22.1495C123.158 22.5969 123.196 23.0963 123.104 23.6478C123.012 24.202 122.812 24.6586 122.507 25.0177C122.201 25.374 121.804 25.6199 121.315 25.7553C120.829 25.8912 120.265 25.9051 119.624 25.7971L117.42 25.4255L117.657 24.0074L119.576 24.3309C119.913 24.3877 120.2 24.3886 120.438 24.3338C120.676 24.279 120.865 24.1684 121.005 24.002C121.147 23.836 121.241 23.6158 121.287 23.3414C121.333 23.0643 121.316 22.8213 121.237 22.6124C121.16 22.4039 121.017 22.2317 120.808 22.0959C120.602 21.9579 120.329 21.8602 119.99 21.803L118.8 21.6024L117.647 28.5055L115.883 28.2081ZM121.023 25.1698L122.463 29.3174L120.515 28.9891L119.121 24.8491L121.023 25.1698Z" fill="white"/>
<path d="M139.616 25.8912L136.456 33.7374L134.797 33.0666L137.956 25.2204L139.616 25.8912Z" fill="white"/>
<path d="M151.781 32.045L147.636 39.4165L146.289 38.6571L145.69 32.2085L145.636 32.1781L143.026 36.8176L141.467 35.9385L145.613 28.567L146.981 29.3386L147.557 35.7694L147.622 35.8059L150.229 31.1699L151.781 32.045Z" fill="white"/>
<path d="M156.677 37.0711L157.595 35.9184L163.031 40.2564L162.112 41.4091L160.086 39.792L155.735 45.2522L154.351 44.1483L158.703 38.6882L156.677 37.0711Z" fill="white"/>
<path d="M161.851 50.6645L168.081 44.9475L170.339 47.4097C170.771 47.881 171.056 48.3604 171.193 48.848C171.334 49.3358 171.332 49.8076 171.186 50.2633C171.044 50.7192 170.767 51.136 170.355 51.5138C169.942 51.8934 169.504 52.1307 169.042 52.2255C168.582 52.3184 168.117 52.2678 167.648 52.0737C167.18 51.8816 166.726 51.5459 166.287 51.0665L164.775 49.4179L165.833 48.4465L167.15 49.8817C167.381 50.1336 167.607 50.3112 167.829 50.4145C168.051 50.5179 168.268 50.5469 168.48 50.5016C168.694 50.4583 168.904 50.3427 169.109 50.1548C169.316 49.9649 169.452 49.7632 169.517 49.5497C169.585 49.3382 169.578 49.1146 169.496 48.879C169.418 48.6436 169.263 48.3989 169.03 48.1449L168.214 47.2552L163.061 51.9839L161.851 50.6645ZM167.777 51.433L166.365 55.5857L165.029 54.1291L166.472 50.01L167.777 51.433Z" fill="white"/>
<path d="M177.61 64.0923C176.84 64.599 176.088 64.8839 175.355 64.947C174.624 65.0123 173.95 64.8878 173.335 64.5734C172.723 64.2598 172.212 63.791 171.801 63.1671C171.387 62.5385 171.159 61.8805 171.115 61.1933C171.071 60.5061 171.224 59.8396 171.574 59.194C171.923 58.5484 172.482 57.973 173.25 57.4678C174.02 56.961 174.771 56.675 175.502 56.6096C176.234 56.5442 176.905 56.6684 177.517 56.9819C178.131 57.294 178.645 57.7644 179.058 58.393C179.469 59.017 179.696 59.6726 179.74 60.3598C179.788 61.0478 179.637 61.7147 179.287 62.3603C178.939 63.0082 178.38 63.5855 177.61 64.0923ZM176.612 62.576C177.111 62.2478 177.483 61.8961 177.727 61.521C177.972 61.1483 178.095 60.769 178.095 60.3831C178.094 59.9972 177.975 59.6235 177.737 59.262C177.499 58.9005 177.203 58.6433 176.849 58.4904C176.495 58.3375 176.097 58.2989 175.656 58.3746C175.216 58.4526 174.747 58.6558 174.248 58.984C173.749 59.3123 173.376 59.6628 173.131 60.0355C172.887 60.4106 172.765 60.7911 172.765 61.1769C172.765 61.5628 172.884 61.9365 173.122 62.298C173.36 62.6595 173.656 62.9167 174.011 63.0696C174.365 63.2226 174.762 63.26 175.202 63.182C175.643 63.1063 176.113 62.9043 176.612 62.576Z" fill="white"/>
<path d="M188.072 76.4884L182.63 80.467L182.655 80.5414L189.4 80.4469L190.032 82.3282L181.083 82.2442L180.349 80.0572L187.439 74.6032L188.072 76.4884Z" fill="white"/>
<path d="M191.858 90.4019L183.558 92.0273L183.212 90.2712L191.512 88.6458L191.858 90.4019Z" fill="white"/>
<path d="M184.653 100.421L184.457 97.4264L192.899 96.8858L193.097 99.9046C193.152 100.754 193.031 101.496 192.733 102.131C192.438 102.766 191.987 103.268 191.379 103.638C190.772 104.011 190.029 104.226 189.153 104.282C188.273 104.338 187.507 104.22 186.853 103.928C186.199 103.639 185.683 103.196 185.305 102.599C184.926 102.004 184.709 101.278 184.653 100.421ZM186.103 99.1142L186.177 100.248C186.212 100.776 186.334 101.214 186.545 101.562C186.758 101.913 187.069 102.167 187.476 102.323C187.887 102.482 188.407 102.541 189.036 102.5C189.66 102.46 190.164 102.336 190.547 102.126C190.931 101.919 191.205 101.63 191.368 101.258C191.531 100.886 191.596 100.436 191.561 99.9077L191.487 98.7695L186.103 99.1142Z" fill="white"/>
<path d="M184.828 110.447L193.254 111.218L192.743 116.897L191.274 116.763L191.625 112.866L189.617 112.682L189.293 116.287L187.824 116.152L188.149 112.547L186.137 112.363L185.784 116.277L184.315 116.142L184.828 110.447Z" fill="white"/>
<path d="M185.677 130.306C184.782 130.081 184.063 129.719 183.52 129.222C182.976 128.727 182.612 128.147 182.426 127.481C182.242 126.819 182.241 126.126 182.422 125.402C182.605 124.672 182.934 124.059 183.41 123.563C183.886 123.067 184.481 122.729 185.193 122.55C185.905 122.372 186.707 122.395 187.599 122.619C188.494 122.844 189.214 123.204 189.757 123.699C190.301 124.193 190.665 124.772 190.848 125.434C191.035 126.098 191.037 126.794 190.854 127.523C190.673 128.247 190.345 128.857 189.868 129.354C189.394 129.854 188.801 130.193 188.089 130.372C187.376 130.553 186.572 130.531 185.677 130.306ZM186.117 128.546C186.697 128.692 187.208 128.729 187.649 128.655C188.09 128.584 188.452 128.418 188.736 128.157C189.02 127.897 189.214 127.557 189.319 127.137C189.424 126.718 189.413 126.326 189.285 125.961C189.158 125.597 188.917 125.278 188.562 125.004C188.207 124.733 187.739 124.524 187.159 124.379C186.58 124.233 186.069 124.195 185.628 124.266C185.187 124.339 184.824 124.507 184.54 124.767C184.256 125.028 184.062 125.368 183.957 125.788C183.852 126.207 183.864 126.599 183.991 126.964C184.119 127.328 184.36 127.646 184.716 127.917C185.07 128.191 185.537 128.401 186.117 128.546Z" fill="white"/>
<path d="M181.82 144.328C181.362 145.123 180.346 145.395 179.551 144.936C178.755 144.476 178.482 143.459 178.94 142.664C179.398 141.87 180.414 141.597 181.209 142.057C182.005 142.516 182.278 143.533 181.82 144.328Z" fill="white"/>
<path d="M34.1116 70.1745C33.6535 70.9694 32.6375 71.2414 31.8421 70.782C31.0468 70.3226 30.7734 69.3058 31.2314 68.5108C31.6895 67.7159 32.7056 67.4439 33.5009 67.9033C34.2962 68.3627 34.5697 69.3795 34.1116 70.1745Z" fill="white"/>
</g>
<defs>
<filter id="filter0_b_9_1720" x="-49.1562" y="-49.7119" width="310" height="310" filterUnits="userSpaceOnUse" color-interpolation-filters="sRGB">
<feFlood flood-opacity="0" result="BackgroundImageFix"/>
<feGaussianBlur in="BackgroundImageFix" stdDeviation="25"/>
<feComposite in2="SourceAlpha" operator="in" result="effect1_backgroundBlur_9_1720"/>
<feBlend mode="normal" in="SourceGraphic" in2="effect1_backgroundBlur_9_1720" result="shape"/>
</filter>
</defs>
</svg>
